<svg xmlns="http://www.w3.org/2000/svg" viewBox="-56 -56 904 904" width="600" height="600">
  <defs>
    <clipPath id="shapeClip"><path d="M 790.3,559.3 L 559.3,790.3 L 232.7,790.3 L 1.7,559.3 L 1.7,232.7 L 232.7,1.7 L 559.3,1.7 L 790.3,232.7 Z"/></clipPath>
    <radialGradient id="bgGrad" cx="50%" cy="50%" r="50%">
      <stop offset="0%" stop-color="#FAF7F0" stop-opacity="1"/>
      <stop offset="92%" stop-color="#F4EFE3" stop-opacity="1"/>
      <stop offset="100%" stop-color="#ECE5D2" stop-opacity="1"/>
    </radialGradient>
  </defs>
  <!-- Тонкая внешняя gold-окантовка по форме -->
  <path d="M 790.3,559.3 L 559.3,790.3 L 232.7,790.3 L 1.7,559.3 L 1.7,232.7 L 232.7,1.7 L 559.3,1.7 L 790.3,232.7 Z" fill="none" stroke="#8C7649" stroke-width="2.5" opacity="0.7"/>
  <!-- Cream-paper фон в фигуре -->
  <path d="M 790.3,559.3 L 559.3,790.3 L 232.7,790.3 L 1.7,559.3 L 1.7,232.7 L 232.7,1.7 L 559.3,1.7 L 790.3,232.7 Z" fill="url(#bgGrad)"/>
  <!-- QR-модули с clip по форме -->
  <g clip-path="url(#shapeClip)">
<rect x="0" y="0" width="24" height="24" fill="#2A2520"/>
<rect x="24" y="0" width="24" height="24" fill="#2A2520"/>
<rect x="48" y="0" width="24" height="24" fill="#2A2520"/>
<rect x="72" y="0" width="24" height="24" fill="#2A2520"/>
<rect x="96" y="0" width="24" height="24" fill="#2A2520"/>
<rect x="120" y="0" width="24" height="24" fill="#2A2520"/>
<rect x="144" y="0" width="24" height="24" fill="#2A2520"/>
<circle cx="204.0" cy="12.0" r="10.08" fill="#2A2520"/>
<circle cx="228.0" cy="12.0" r="10.08" fill="#2A2520"/>
<circle cx="252.0" cy="12.0" r="10.08" fill="#2A2520"/>
<circle cx="300.0" cy="12.0" r="10.08" fill="#2A2520"/>
<circle cx="324.0" cy="12.0" r="10.08" fill="#2A2520"/>
<circle cx="348.0" cy="12.0" r="10.08" fill="#2A2520"/>
<circle cx="420.0" cy="12.0" r="10.08" fill="#2A2520"/>
<circle cx="444.0" cy="12.0" r="10.08" fill="#2A2520"/>
<circle cx="468.0" cy="12.0" r="10.08" fill="#2A2520"/>
<circle cx="564.0" cy="12.0" r="10.08" fill="#2A2520"/>
<circle cx="588.0" cy="12.0" r="10.08" fill="#2A2520"/>
<rect x="624" y="0" width="24" height="24" fill="#2A2520"/>
<rect x="648" y="0" width="24" height="24" fill="#2A2520"/>
<rect x="672" y="0" width="24" height="24" fill="#2A2520"/>
<rect x="696" y="0" width="24" height="24" fill="#2A2520"/>
<rect x="720" y="0" width="24" height="24" fill="#2A2520"/>
<rect x="744" y="0" width="24" height="24" fill="#2A2520"/>
<rect x="768" y="0" width="24" height="24" fill="#2A2520"/>
<rect x="0" y="24" width="24" height="24" fill="#2A2520"/>
<rect x="144" y="24" width="24" height="24" fill="#2A2520"/>
<circle cx="204.0" cy="36.0" r="10.08" fill="#2A2520"/>
<circle cx="228.0" cy="36.0" r="10.08" fill="#2A2520"/>
<circle cx="252.0" cy="36.0" r="10.08" fill="#2A2520"/>
<circle cx="276.0" cy="36.0" r="10.08" fill="#2A2520"/>
<circle cx="324.0" cy="36.0" r="10.08" fill="#2A2520"/>
<circle cx="348.0" cy="36.0" r="10.08" fill="#2A2520"/>
<circle cx="372.0" cy="36.0" r="10.08" fill="#2A2520"/>
<circle cx="396.0" cy="36.0" r="10.08" fill="#2A2520"/>
<circle cx="444.0" cy="36.0" r="10.08" fill="#2A2520"/>
<circle cx="468.0" cy="36.0" r="10.08" fill="#2A2520"/>
<circle cx="516.0" cy="36.0" r="10.08" fill="#2A2520"/>
<circle cx="540.0" cy="36.0" r="10.08" fill="#2A2520"/>
<circle cx="588.0" cy="36.0" r="10.08" fill="#2A2520"/>
<rect x="624" y="24" width="24" height="24" fill="#2A2520"/>
<rect x="768" y="24" width="24" height="24" fill="#2A2520"/>
<rect x="0" y="48" width="24" height="24" fill="#2A2520"/>
<rect x="48" y="48" width="24" height="24" fill="#2A2520"/>
<rect x="72" y="48" width="24" height="24" fill="#2A2520"/>
<rect x="96" y="48" width="24" height="24" fill="#2A2520"/>
<rect x="144" y="48" width="24" height="24" fill="#2A2520"/>
<circle cx="204.0" cy="60.0" r="10.08" fill="#2A2520"/>
<circle cx="252.0" cy="60.0" r="10.08" fill="#2A2520"/>
<circle cx="300.0" cy="60.0" r="10.08" fill="#2A2520"/>
<circle cx="324.0" cy="60.0" r="10.08" fill="#2A2520"/>
<circle cx="348.0" cy="60.0" r="10.08" fill="#2A2520"/>
<circle cx="420.0" cy="60.0" r="10.08" fill="#2A2520"/>
<circle cx="444.0" cy="60.0" r="10.08" fill="#2A2520"/>
<circle cx="492.0" cy="60.0" r="10.08" fill="#2A2520"/>
<circle cx="516.0" cy="60.0" r="10.08" fill="#2A2520"/>
<circle cx="540.0" cy="60.0" r="10.08" fill="#2A2520"/>
<circle cx="564.0" cy="60.0" r="10.08" fill="#2A2520"/>
<circle cx="588.0" cy="60.0" r="10.08" fill="#2A2520"/>
<rect x="624" y="48" width="24" height="24" fill="#2A2520"/>
<rect x="672" y="48" width="24" height="24" fill="#2A2520"/>
<rect x="696" y="48" width="24" height="24" fill="#2A2520"/>
<rect x="720" y="48" width="24" height="24" fill="#2A2520"/>
<rect x="768" y="48" width="24" height="24" fill="#2A2520"/>
<rect x="0" y="72" width="24" height="24" fill="#2A2520"/>
<rect x="48" y="72" width="24" height="24" fill="#2A2520"/>
<rect x="72" y="72" width="24" height="24" fill="#2A2520"/>
<rect x="96" y="72" width="24" height="24" fill="#2A2520"/>
<rect x="144" y="72" width="24" height="24" fill="#2A2520"/>
<circle cx="228.0" cy="84.0" r="10.08" fill="#2A2520"/>
<circle cx="348.0" cy="84.0" r="10.08" fill="#2A2520"/>
<circle cx="396.0" cy="84.0" r="10.08" fill="#2A2520"/>
<circle cx="468.0" cy="84.0" r="10.08" fill="#2A2520"/>
<circle cx="540.0" cy="84.0" r="10.08" fill="#2A2520"/>
<circle cx="564.0" cy="84.0" r="10.08" fill="#2A2520"/>
<circle cx="588.0" cy="84.0" r="10.08" fill="#2A2520"/>
<rect x="624" y="72" width="24" height="24" fill="#2A2520"/>
<rect x="672" y="72" width="24" height="24" fill="#2A2520"/>
<rect x="696" y="72" width="24" height="24" fill="#2A2520"/>
<rect x="720" y="72" width="24" height="24" fill="#2A2520"/>
<rect x="768" y="72" width="24" height="24" fill="#2A2520"/>
<rect x="0" y="96" width="24" height="24" fill="#2A2520"/>
<rect x="48" y="96" width="24" height="24" fill="#2A2520"/>
<rect x="72" y="96" width="24" height="24" fill="#2A2520"/>
<rect x="96" y="96" width="24" height="24" fill="#2A2520"/>
<rect x="144" y="96" width="24" height="24" fill="#2A2520"/>
<circle cx="228.0" cy="108.0" r="10.08" fill="#2A2520"/>
<circle cx="252.0" cy="108.0" r="10.08" fill="#2A2520"/>
<circle cx="276.0" cy="108.0" r="10.08" fill="#2A2520"/>
<circle cx="372.0" cy="108.0" r="10.08" fill="#2A2520"/>
<circle cx="396.0" cy="108.0" r="10.08" fill="#2A2520"/>
<circle cx="444.0" cy="108.0" r="10.08" fill="#2A2520"/>
<circle cx="468.0" cy="108.0" r="10.08" fill="#2A2520"/>
<circle cx="516.0" cy="108.0" r="10.08" fill="#2A2520"/>
<circle cx="540.0" cy="108.0" r="10.08" fill="#2A2520"/>
<circle cx="564.0" cy="108.0" r="10.08" fill="#2A2520"/>
<circle cx="588.0" cy="108.0" r="10.08" fill="#2A2520"/>
<rect x="624" y="96" width="24" height="24" fill="#2A2520"/>
<rect x="672" y="96" width="24" height="24" fill="#2A2520"/>
<rect x="696" y="96" width="24" height="24" fill="#2A2520"/>
<rect x="720" y="96" width="24" height="24" fill="#2A2520"/>
<rect x="768" y="96" width="24" height="24" fill="#2A2520"/>
<rect x="0" y="120" width="24" height="24" fill="#2A2520"/>
<rect x="144" y="120" width="24" height="24" fill="#2A2520"/>
<circle cx="204.0" cy="132.0" r="10.08" fill="#2A2520"/>
<circle cx="348.0" cy="132.0" r="10.08" fill="#2A2520"/>
<circle cx="372.0" cy="132.0" r="10.08" fill="#2A2520"/>
<circle cx="396.0" cy="132.0" r="10.08" fill="#2A2520"/>
<circle cx="420.0" cy="132.0" r="10.08" fill="#2A2520"/>
<circle cx="468.0" cy="132.0" r="10.08" fill="#2A2520"/>
<circle cx="492.0" cy="132.0" r="10.08" fill="#2A2520"/>
<circle cx="516.0" cy="132.0" r="10.08" fill="#2A2520"/>
<circle cx="540.0" cy="132.0" r="10.08" fill="#2A2520"/>
<circle cx="588.0" cy="132.0" r="10.08" fill="#2A2520"/>
<rect x="624" y="120" width="24" height="24" fill="#2A2520"/>
<rect x="768" y="120" width="24" height="24" fill="#2A2520"/>
<rect x="0" y="144" width="24" height="24" fill="#2A2520"/>
<rect x="24" y="144" width="24" height="24" fill="#2A2520"/>
<rect x="48" y="144" width="24" height="24" fill="#2A2520"/>
<rect x="72" y="144" width="24" height="24" fill="#2A2520"/>
<rect x="96" y="144" width="24" height="24" fill="#2A2520"/>
<rect x="120" y="144" width="24" height="24" fill="#2A2520"/>
<rect x="144" y="144" width="24" height="24" fill="#2A2520"/>
<circle cx="204.0" cy="156.0" r="10.08" fill="#2A2520"/>
<circle cx="252.0" cy="156.0" r="10.08" fill="#2A2520"/>
<circle cx="300.0" cy="156.0" r="10.08" fill="#2A2520"/>
<circle cx="348.0" cy="156.0" r="10.08" fill="#2A2520"/>
<circle cx="396.0" cy="156.0" r="10.08" fill="#2A2520"/>
<circle cx="444.0" cy="156.0" r="10.08" fill="#2A2520"/>
<circle cx="492.0" cy="156.0" r="10.08" fill="#2A2520"/>
<circle cx="540.0" cy="156.0" r="10.08" fill="#2A2520"/>
<circle cx="588.0" cy="156.0" r="10.08" fill="#2A2520"/>
<rect x="624" y="144" width="24" height="24" fill="#2A2520"/>
<rect x="648" y="144" width="24" height="24" fill="#2A2520"/>
<rect x="672" y="144" width="24" height="24" fill="#2A2520"/>
<rect x="696" y="144" width="24" height="24" fill="#2A2520"/>
<rect x="720" y="144" width="24" height="24" fill="#2A2520"/>
<rect x="744" y="144" width="24" height="24" fill="#2A2520"/>
<rect x="768" y="144" width="24" height="24" fill="#2A2520"/>
<circle cx="204.0" cy="180.0" r="10.08" fill="#2A2520"/>
<circle cx="228.0" cy="180.0" r="10.08" fill="#2A2520"/>
<circle cx="348.0" cy="180.0" r="10.08" fill="#2A2520"/>
<circle cx="396.0" cy="180.0" r="10.08" fill="#2A2520"/>
<circle cx="444.0" cy="180.0" r="10.08" fill="#2A2520"/>
<circle cx="468.0" cy="180.0" r="10.08" fill="#2A2520"/>
<circle cx="492.0" cy="180.0" r="10.08" fill="#2A2520"/>
<circle cx="516.0" cy="180.0" r="10.08" fill="#2A2520"/>
<circle cx="540.0" cy="180.0" r="10.08" fill="#2A2520"/>
<circle cx="588.0" cy="180.0" r="10.08" fill="#2A2520"/>
<circle cx="60.0" cy="204.0" r="10.08" fill="#2A2520"/>
<circle cx="84.0" cy="204.0" r="10.08" fill="#2A2520"/>
<circle cx="108.0" cy="204.0" r="10.08" fill="#2A2520"/>
<circle cx="156.0" cy="204.0" r="10.08" fill="#2A2520"/>
<circle cx="204.0" cy="204.0" r="10.08" fill="#2A2520"/>
<circle cx="252.0" cy="204.0" r="10.08" fill="#2A2520"/>
<circle cx="276.0" cy="204.0" r="10.08" fill="#2A2520"/>
<circle cx="300.0" cy="204.0" r="10.08" fill="#2A2520"/>
<circle cx="372.0" cy="204.0" r="10.08" fill="#2A2520"/>
<circle cx="420.0" cy="204.0" r="10.08" fill="#2A2520"/>
<circle cx="444.0" cy="204.0" r="10.08" fill="#2A2520"/>
<circle cx="468.0" cy="204.0" r="10.08" fill="#2A2520"/>
<circle cx="492.0" cy="204.0" r="10.08" fill="#2A2520"/>
<circle cx="540.0" cy="204.0" r="10.08" fill="#2A2520"/>
<circle cx="588.0" cy="204.0" r="10.08" fill="#2A2520"/>
<circle cx="612.0" cy="204.0" r="10.08" fill="#2A2520"/>
<circle cx="636.0" cy="204.0" r="10.08" fill="#2A2520"/>
<circle cx="660.0" cy="204.0" r="10.08" fill="#2A2520"/>
<circle cx="732.0" cy="204.0" r="10.08" fill="#2A2520"/>
<circle cx="756.0" cy="204.0" r="10.08" fill="#2A2520"/>
<circle cx="780.0" cy="204.0" r="10.08" fill="#2A2520"/>
<circle cx="12.0" cy="228.0" r="10.08" fill="#2A2520"/>
<circle cx="36.0" cy="228.0" r="10.08" fill="#2A2520"/>
<circle cx="84.0" cy="228.0" r="10.08" fill="#2A2520"/>
<circle cx="108.0" cy="228.0" r="10.08" fill="#2A2520"/>
<circle cx="180.0" cy="228.0" r="10.08" fill="#2A2520"/>
<circle cx="204.0" cy="228.0" r="10.08" fill="#2A2520"/>
<circle cx="228.0" cy="228.0" r="10.08" fill="#2A2520"/>
<circle cx="252.0" cy="228.0" r="10.08" fill="#2A2520"/>
<circle cx="300.0" cy="228.0" r="10.08" fill="#2A2520"/>
<circle cx="324.0" cy="228.0" r="10.08" fill="#2A2520"/>
<circle cx="372.0" cy="228.0" r="10.08" fill="#2A2520"/>
<circle cx="396.0" cy="228.0" r="10.08" fill="#2A2520"/>
<circle cx="540.0" cy="228.0" r="10.08" fill="#2A2520"/>
<circle cx="564.0" cy="228.0" r="10.08" fill="#2A2520"/>
<circle cx="612.0" cy="228.0" r="10.08" fill="#2A2520"/>
<circle cx="636.0" cy="228.0" r="10.08" fill="#2A2520"/>
<circle cx="780.0" cy="228.0" r="10.08" fill="#2A2520"/>
<circle cx="12.0" cy="252.0" r="10.08" fill="#2A2520"/>
<circle cx="60.0" cy="252.0" r="10.08" fill="#2A2520"/>
<circle cx="84.0" cy="252.0" r="10.08" fill="#2A2520"/>
<circle cx="108.0" cy="252.0" r="10.08" fill="#2A2520"/>
<circle cx="132.0" cy="252.0" r="10.08" fill="#2A2520"/>
<circle cx="156.0" cy="252.0" r="10.08" fill="#2A2520"/>
<circle cx="228.0" cy="252.0" r="10.08" fill="#2A2520"/>
<circle cx="276.0" cy="252.0" r="10.08" fill="#2A2520"/>
<circle cx="300.0" cy="252.0" r="10.08" fill="#2A2520"/>
<circle cx="324.0" cy="252.0" r="10.08" fill="#2A2520"/>
<circle cx="372.0" cy="252.0" r="10.08" fill="#2A2520"/>
<circle cx="420.0" cy="252.0" r="10.08" fill="#2A2520"/>
<circle cx="492.0" cy="252.0" r="10.08" fill="#2A2520"/>
<circle cx="540.0" cy="252.0" r="10.08" fill="#2A2520"/>
<circle cx="588.0" cy="252.0" r="10.08" fill="#2A2520"/>
<circle cx="636.0" cy="252.0" r="10.08" fill="#2A2520"/>
<circle cx="660.0" cy="252.0" r="10.08" fill="#2A2520"/>
<circle cx="732.0" cy="252.0" r="10.08" fill="#2A2520"/>
<circle cx="756.0" cy="252.0" r="10.08" fill="#2A2520"/>
<circle cx="12.0" cy="276.0" r="10.08" fill="#2A2520"/>
<circle cx="132.0" cy="276.0" r="10.08" fill="#2A2520"/>
<circle cx="180.0" cy="276.0" r="10.08" fill="#2A2520"/>
<circle cx="228.0" cy="276.0" r="10.08" fill="#2A2520"/>
<circle cx="252.0" cy="276.0" r="10.08" fill="#2A2520"/>
<circle cx="276.0" cy="276.0" r="10.08" fill="#2A2520"/>
<circle cx="300.0" cy="276.0" r="10.08" fill="#2A2520"/>
<circle cx="348.0" cy="276.0" r="10.08" fill="#2A2520"/>
<circle cx="444.0" cy="276.0" r="10.08" fill="#2A2520"/>
<circle cx="492.0" cy="276.0" r="10.08" fill="#2A2520"/>
<circle cx="516.0" cy="276.0" r="10.08" fill="#2A2520"/>
<circle cx="540.0" cy="276.0" r="10.08" fill="#2A2520"/>
<circle cx="564.0" cy="276.0" r="10.08" fill="#2A2520"/>
<circle cx="612.0" cy="276.0" r="10.08" fill="#2A2520"/>
<circle cx="708.0" cy="276.0" r="10.08" fill="#2A2520"/>
<circle cx="732.0" cy="276.0" r="10.08" fill="#2A2520"/>
<circle cx="756.0" cy="276.0" r="10.08" fill="#2A2520"/>
<circle cx="12.0" cy="300.0" r="10.08" fill="#2A2520"/>
<circle cx="36.0" cy="300.0" r="10.08" fill="#2A2520"/>
<circle cx="60.0" cy="300.0" r="10.08" fill="#2A2520"/>
<circle cx="84.0" cy="300.0" r="10.08" fill="#2A2520"/>
<circle cx="108.0" cy="300.0" r="10.08" fill="#2A2520"/>
<circle cx="132.0" cy="300.0" r="10.08" fill="#2A2520"/>
<circle cx="156.0" cy="300.0" r="10.08" fill="#2A2520"/>
<circle cx="204.0" cy="300.0" r="10.08" fill="#2A2520"/>
<circle cx="276.0" cy="300.0" r="10.08" fill="#2A2520"/>
<circle cx="300.0" cy="300.0" r="10.08" fill="#2A2520"/>
<circle cx="324.0" cy="300.0" r="10.08" fill="#2A2520"/>
<circle cx="348.0" cy="300.0" r="10.08" fill="#2A2520"/>
<circle cx="396.0" cy="300.0" r="10.08" fill="#2A2520"/>
<circle cx="444.0" cy="300.0" r="10.08" fill="#2A2520"/>
<circle cx="516.0" cy="300.0" r="10.08" fill="#2A2520"/>
<circle cx="588.0" cy="300.0" r="10.08" fill="#2A2520"/>
<circle cx="612.0" cy="300.0" r="10.08" fill="#2A2520"/>
<circle cx="660.0" cy="300.0" r="10.08" fill="#2A2520"/>
<circle cx="684.0" cy="300.0" r="10.08" fill="#2A2520"/>
<circle cx="756.0" cy="300.0" r="10.08" fill="#2A2520"/>
<circle cx="780.0" cy="300.0" r="10.08" fill="#2A2520"/>
<circle cx="12.0" cy="324.0" r="10.08" fill="#2A2520"/>
<circle cx="36.0" cy="324.0" r="10.08" fill="#2A2520"/>
<circle cx="84.0" cy="324.0" r="10.08" fill="#2A2520"/>
<circle cx="132.0" cy="324.0" r="10.08" fill="#2A2520"/>
<circle cx="180.0" cy="324.0" r="10.08" fill="#2A2520"/>
<circle cx="204.0" cy="324.0" r="10.08" fill="#2A2520"/>
<circle cx="228.0" cy="324.0" r="10.08" fill="#2A2520"/>
<circle cx="252.0" cy="324.0" r="10.08" fill="#2A2520"/>
<circle cx="564.0" cy="324.0" r="10.08" fill="#2A2520"/>
<circle cx="588.0" cy="324.0" r="10.08" fill="#2A2520"/>
<circle cx="636.0" cy="324.0" r="10.08" fill="#2A2520"/>
<circle cx="708.0" cy="324.0" r="10.08" fill="#2A2520"/>
<circle cx="732.0" cy="324.0" r="10.08" fill="#2A2520"/>
<circle cx="780.0" cy="324.0" r="10.08" fill="#2A2520"/>
<circle cx="36.0" cy="348.0" r="10.08" fill="#2A2520"/>
<circle cx="60.0" cy="348.0" r="10.08" fill="#2A2520"/>
<circle cx="108.0" cy="348.0" r="10.08" fill="#2A2520"/>
<circle cx="132.0" cy="348.0" r="10.08" fill="#2A2520"/>
<circle cx="156.0" cy="348.0" r="10.08" fill="#2A2520"/>
<circle cx="228.0" cy="348.0" r="10.08" fill="#2A2520"/>
<circle cx="276.0" cy="348.0" r="10.08" fill="#2A2520"/>
<circle cx="300.0" cy="348.0" r="10.08" fill="#2A2520"/>
<circle cx="540.0" cy="348.0" r="10.08" fill="#2A2520"/>
<circle cx="612.0" cy="348.0" r="10.08" fill="#2A2520"/>
<circle cx="660.0" cy="348.0" r="10.08" fill="#2A2520"/>
<circle cx="684.0" cy="348.0" r="10.08" fill="#2A2520"/>
<circle cx="708.0" cy="348.0" r="10.08" fill="#2A2520"/>
<circle cx="732.0" cy="348.0" r="10.08" fill="#2A2520"/>
<circle cx="756.0" cy="348.0" r="10.08" fill="#2A2520"/>
<circle cx="36.0" cy="372.0" r="10.08" fill="#2A2520"/>
<circle cx="84.0" cy="372.0" r="10.08" fill="#2A2520"/>
<circle cx="132.0" cy="372.0" r="10.08" fill="#2A2520"/>
<circle cx="204.0" cy="372.0" r="10.08" fill="#2A2520"/>
<circle cx="228.0" cy="372.0" r="10.08" fill="#2A2520"/>
<circle cx="252.0" cy="372.0" r="10.08" fill="#2A2520"/>
<circle cx="276.0" cy="372.0" r="10.08" fill="#2A2520"/>
<circle cx="516.0" cy="372.0" r="10.08" fill="#2A2520"/>
<circle cx="540.0" cy="372.0" r="10.08" fill="#2A2520"/>
<circle cx="588.0" cy="372.0" r="10.08" fill="#2A2520"/>
<circle cx="612.0" cy="372.0" r="10.08" fill="#2A2520"/>
<circle cx="684.0" cy="372.0" r="10.08" fill="#2A2520"/>
<circle cx="708.0" cy="372.0" r="10.08" fill="#2A2520"/>
<circle cx="732.0" cy="372.0" r="10.08" fill="#2A2520"/>
<circle cx="756.0" cy="372.0" r="10.08" fill="#2A2520"/>
<circle cx="36.0" cy="396.0" r="10.08" fill="#2A2520"/>
<circle cx="60.0" cy="396.0" r="10.08" fill="#2A2520"/>
<circle cx="84.0" cy="396.0" r="10.08" fill="#2A2520"/>
<circle cx="156.0" cy="396.0" r="10.08" fill="#2A2520"/>
<circle cx="204.0" cy="396.0" r="10.08" fill="#2A2520"/>
<circle cx="252.0" cy="396.0" r="10.08" fill="#2A2520"/>
<circle cx="276.0" cy="396.0" r="10.08" fill="#2A2520"/>
<circle cx="660.0" cy="396.0" r="10.08" fill="#2A2520"/>
<circle cx="684.0" cy="396.0" r="10.08" fill="#2A2520"/>
<circle cx="132.0" cy="420.0" r="10.08" fill="#2A2520"/>
<circle cx="204.0" cy="420.0" r="10.08" fill="#2A2520"/>
<circle cx="516.0" cy="420.0" r="10.08" fill="#2A2520"/>
<circle cx="564.0" cy="420.0" r="10.08" fill="#2A2520"/>
<circle cx="588.0" cy="420.0" r="10.08" fill="#2A2520"/>
<circle cx="636.0" cy="420.0" r="10.08" fill="#2A2520"/>
<circle cx="780.0" cy="420.0" r="10.08" fill="#2A2520"/>
<circle cx="12.0" cy="444.0" r="10.08" fill="#2A2520"/>
<circle cx="36.0" cy="444.0" r="10.08" fill="#2A2520"/>
<circle cx="84.0" cy="444.0" r="10.08" fill="#2A2520"/>
<circle cx="108.0" cy="444.0" r="10.08" fill="#2A2520"/>
<circle cx="156.0" cy="444.0" r="10.08" fill="#2A2520"/>
<circle cx="228.0" cy="444.0" r="10.08" fill="#2A2520"/>
<circle cx="252.0" cy="444.0" r="10.08" fill="#2A2520"/>
<circle cx="300.0" cy="444.0" r="10.08" fill="#2A2520"/>
<circle cx="660.0" cy="444.0" r="10.08" fill="#2A2520"/>
<circle cx="684.0" cy="444.0" r="10.08" fill="#2A2520"/>
<circle cx="732.0" cy="444.0" r="10.08" fill="#2A2520"/>
<circle cx="756.0" cy="444.0" r="10.08" fill="#2A2520"/>
<circle cx="12.0" cy="468.0" r="10.08" fill="#2A2520"/>
<circle cx="36.0" cy="468.0" r="10.08" fill="#2A2520"/>
<circle cx="60.0" cy="468.0" r="10.08" fill="#2A2520"/>
<circle cx="84.0" cy="468.0" r="10.08" fill="#2A2520"/>
<circle cx="108.0" cy="468.0" r="10.08" fill="#2A2520"/>
<circle cx="228.0" cy="468.0" r="10.08" fill="#2A2520"/>
<circle cx="252.0" cy="468.0" r="10.08" fill="#2A2520"/>
<circle cx="300.0" cy="468.0" r="10.08" fill="#2A2520"/>
<circle cx="516.0" cy="468.0" r="10.08" fill="#2A2520"/>
<circle cx="540.0" cy="468.0" r="10.08" fill="#2A2520"/>
<circle cx="564.0" cy="468.0" r="10.08" fill="#2A2520"/>
<circle cx="588.0" cy="468.0" r="10.08" fill="#2A2520"/>
<circle cx="612.0" cy="468.0" r="10.08" fill="#2A2520"/>
<circle cx="660.0" cy="468.0" r="10.08" fill="#2A2520"/>
<circle cx="708.0" cy="468.0" r="10.08" fill="#2A2520"/>
<circle cx="732.0" cy="468.0" r="10.08" fill="#2A2520"/>
<circle cx="756.0" cy="468.0" r="10.08" fill="#2A2520"/>
<circle cx="780.0" cy="468.0" r="10.08" fill="#2A2520"/>
<circle cx="12.0" cy="492.0" r="10.08" fill="#2A2520"/>
<circle cx="132.0" cy="492.0" r="10.08" fill="#2A2520"/>
<circle cx="156.0" cy="492.0" r="10.08" fill="#2A2520"/>
<circle cx="276.0" cy="492.0" r="10.08" fill="#2A2520"/>
<circle cx="540.0" cy="492.0" r="10.08" fill="#2A2520"/>
<circle cx="612.0" cy="492.0" r="10.08" fill="#2A2520"/>
<circle cx="660.0" cy="492.0" r="10.08" fill="#2A2520"/>
<circle cx="684.0" cy="492.0" r="10.08" fill="#2A2520"/>
<circle cx="708.0" cy="492.0" r="10.08" fill="#2A2520"/>
<circle cx="12.0" cy="516.0" r="10.08" fill="#2A2520"/>
<circle cx="36.0" cy="516.0" r="10.08" fill="#2A2520"/>
<circle cx="84.0" cy="516.0" r="10.08" fill="#2A2520"/>
<circle cx="180.0" cy="516.0" r="10.08" fill="#2A2520"/>
<circle cx="204.0" cy="516.0" r="10.08" fill="#2A2520"/>
<circle cx="228.0" cy="516.0" r="10.08" fill="#2A2520"/>
<circle cx="252.0" cy="516.0" r="10.08" fill="#2A2520"/>
<circle cx="276.0" cy="516.0" r="10.08" fill="#2A2520"/>
<circle cx="324.0" cy="516.0" r="10.08" fill="#2A2520"/>
<circle cx="348.0" cy="516.0" r="10.08" fill="#2A2520"/>
<circle cx="396.0" cy="516.0" r="10.08" fill="#2A2520"/>
<circle cx="444.0" cy="516.0" r="10.08" fill="#2A2520"/>
<circle cx="468.0" cy="516.0" r="10.08" fill="#2A2520"/>
<circle cx="516.0" cy="516.0" r="10.08" fill="#2A2520"/>
<circle cx="540.0" cy="516.0" r="10.08" fill="#2A2520"/>
<circle cx="564.0" cy="516.0" r="10.08" fill="#2A2520"/>
<circle cx="612.0" cy="516.0" r="10.08" fill="#2A2520"/>
<circle cx="636.0" cy="516.0" r="10.08" fill="#2A2520"/>
<circle cx="732.0" cy="516.0" r="10.08" fill="#2A2520"/>
<circle cx="780.0" cy="516.0" r="10.08" fill="#2A2520"/>
<circle cx="12.0" cy="540.0" r="10.08" fill="#2A2520"/>
<circle cx="132.0" cy="540.0" r="10.08" fill="#2A2520"/>
<circle cx="156.0" cy="540.0" r="10.08" fill="#2A2520"/>
<circle cx="180.0" cy="540.0" r="10.08" fill="#2A2520"/>
<circle cx="252.0" cy="540.0" r="10.08" fill="#2A2520"/>
<circle cx="300.0" cy="540.0" r="10.08" fill="#2A2520"/>
<circle cx="348.0" cy="540.0" r="10.08" fill="#2A2520"/>
<circle cx="588.0" cy="540.0" r="10.08" fill="#2A2520"/>
<circle cx="660.0" cy="540.0" r="10.08" fill="#2A2520"/>
<circle cx="684.0" cy="540.0" r="10.08" fill="#2A2520"/>
<circle cx="708.0" cy="540.0" r="10.08" fill="#2A2520"/>
<circle cx="732.0" cy="540.0" r="10.08" fill="#2A2520"/>
<circle cx="756.0" cy="540.0" r="10.08" fill="#2A2520"/>
<circle cx="12.0" cy="564.0" r="10.08" fill="#2A2520"/>
<circle cx="60.0" cy="564.0" r="10.08" fill="#2A2520"/>
<circle cx="84.0" cy="564.0" r="10.08" fill="#2A2520"/>
<circle cx="108.0" cy="564.0" r="10.08" fill="#2A2520"/>
<circle cx="180.0" cy="564.0" r="10.08" fill="#2A2520"/>
<circle cx="228.0" cy="564.0" r="10.08" fill="#2A2520"/>
<circle cx="252.0" cy="564.0" r="10.08" fill="#2A2520"/>
<circle cx="348.0" cy="564.0" r="10.08" fill="#2A2520"/>
<circle cx="372.0" cy="564.0" r="10.08" fill="#2A2520"/>
<circle cx="420.0" cy="564.0" r="10.08" fill="#2A2520"/>
<circle cx="468.0" cy="564.0" r="10.08" fill="#2A2520"/>
<circle cx="492.0" cy="564.0" r="10.08" fill="#2A2520"/>
<circle cx="516.0" cy="564.0" r="10.08" fill="#2A2520"/>
<circle cx="588.0" cy="564.0" r="10.08" fill="#2A2520"/>
<circle cx="660.0" cy="564.0" r="10.08" fill="#2A2520"/>
<circle cx="708.0" cy="564.0" r="10.08" fill="#2A2520"/>
<circle cx="732.0" cy="564.0" r="10.08" fill="#2A2520"/>
<circle cx="12.0" cy="588.0" r="10.08" fill="#2A2520"/>
<circle cx="84.0" cy="588.0" r="10.08" fill="#2A2520"/>
<circle cx="156.0" cy="588.0" r="10.08" fill="#2A2520"/>
<circle cx="204.0" cy="588.0" r="10.08" fill="#2A2520"/>
<circle cx="348.0" cy="588.0" r="10.08" fill="#2A2520"/>
<circle cx="420.0" cy="588.0" r="10.08" fill="#2A2520"/>
<circle cx="444.0" cy="588.0" r="10.08" fill="#2A2520"/>
<circle cx="468.0" cy="588.0" r="10.08" fill="#2A2520"/>
<circle cx="492.0" cy="588.0" r="10.08" fill="#2A2520"/>
<circle cx="540.0" cy="588.0" r="10.08" fill="#2A2520"/>
<circle cx="588.0" cy="588.0" r="10.08" fill="#2A2520"/>
<circle cx="612.0" cy="588.0" r="10.08" fill="#2A2520"/>
<circle cx="636.0" cy="588.0" r="10.08" fill="#2A2520"/>
<circle cx="660.0" cy="588.0" r="10.08" fill="#2A2520"/>
<circle cx="684.0" cy="588.0" r="10.08" fill="#2A2520"/>
<circle cx="708.0" cy="588.0" r="10.08" fill="#2A2520"/>
<circle cx="204.0" cy="612.0" r="10.08" fill="#2A2520"/>
<circle cx="300.0" cy="612.0" r="10.08" fill="#2A2520"/>
<circle cx="372.0" cy="612.0" r="10.08" fill="#2A2520"/>
<circle cx="396.0" cy="612.0" r="10.08" fill="#2A2520"/>
<circle cx="444.0" cy="612.0" r="10.08" fill="#2A2520"/>
<circle cx="492.0" cy="612.0" r="10.08" fill="#2A2520"/>
<circle cx="564.0" cy="612.0" r="10.08" fill="#2A2520"/>
<circle cx="588.0" cy="612.0" r="10.08" fill="#2A2520"/>
<circle cx="684.0" cy="612.0" r="10.08" fill="#2A2520"/>
<circle cx="708.0" cy="612.0" r="10.08" fill="#2A2520"/>
<circle cx="732.0" cy="612.0" r="10.08" fill="#2A2520"/>
<circle cx="780.0" cy="612.0" r="10.08" fill="#2A2520"/>
<rect x="0" y="624" width="24" height="24" fill="#2A2520"/>
<rect x="24" y="624" width="24" height="24" fill="#2A2520"/>
<rect x="48" y="624" width="24" height="24" fill="#2A2520"/>
<rect x="72" y="624" width="24" height="24" fill="#2A2520"/>
<rect x="96" y="624" width="24" height="24" fill="#2A2520"/>
<rect x="120" y="624" width="24" height="24" fill="#2A2520"/>
<rect x="144" y="624" width="24" height="24" fill="#2A2520"/>
<circle cx="228.0" cy="636.0" r="10.08" fill="#2A2520"/>
<circle cx="276.0" cy="636.0" r="10.08" fill="#2A2520"/>
<circle cx="300.0" cy="636.0" r="10.08" fill="#2A2520"/>
<circle cx="348.0" cy="636.0" r="10.08" fill="#2A2520"/>
<circle cx="372.0" cy="636.0" r="10.08" fill="#2A2520"/>
<circle cx="444.0" cy="636.0" r="10.08" fill="#2A2520"/>
<circle cx="540.0" cy="636.0" r="10.08" fill="#2A2520"/>
<circle cx="564.0" cy="636.0" r="10.08" fill="#2A2520"/>
<circle cx="588.0" cy="636.0" r="10.08" fill="#2A2520"/>
<circle cx="636.0" cy="636.0" r="10.08" fill="#2A2520"/>
<circle cx="684.0" cy="636.0" r="10.08" fill="#2A2520"/>
<circle cx="708.0" cy="636.0" r="10.08" fill="#2A2520"/>
<circle cx="732.0" cy="636.0" r="10.08" fill="#2A2520"/>
<circle cx="756.0" cy="636.0" r="10.08" fill="#2A2520"/>
<rect x="0" y="648" width="24" height="24" fill="#2A2520"/>
<rect x="144" y="648" width="24" height="24" fill="#2A2520"/>
<circle cx="252.0" cy="660.0" r="10.08" fill="#2A2520"/>
<circle cx="276.0" cy="660.0" r="10.08" fill="#2A2520"/>
<circle cx="300.0" cy="660.0" r="10.08" fill="#2A2520"/>
<circle cx="348.0" cy="660.0" r="10.08" fill="#2A2520"/>
<circle cx="492.0" cy="660.0" r="10.08" fill="#2A2520"/>
<circle cx="564.0" cy="660.0" r="10.08" fill="#2A2520"/>
<circle cx="588.0" cy="660.0" r="10.08" fill="#2A2520"/>
<circle cx="684.0" cy="660.0" r="10.08" fill="#2A2520"/>
<circle cx="708.0" cy="660.0" r="10.08" fill="#2A2520"/>
<circle cx="732.0" cy="660.0" r="10.08" fill="#2A2520"/>
<circle cx="756.0" cy="660.0" r="10.08" fill="#2A2520"/>
<circle cx="780.0" cy="660.0" r="10.08" fill="#2A2520"/>
<rect x="0" y="672" width="24" height="24" fill="#2A2520"/>
<rect x="48" y="672" width="24" height="24" fill="#2A2520"/>
<rect x="72" y="672" width="24" height="24" fill="#2A2520"/>
<rect x="96" y="672" width="24" height="24" fill="#2A2520"/>
<rect x="144" y="672" width="24" height="24" fill="#2A2520"/>
<circle cx="204.0" cy="684.0" r="10.08" fill="#2A2520"/>
<circle cx="276.0" cy="684.0" r="10.08" fill="#2A2520"/>
<circle cx="324.0" cy="684.0" r="10.08" fill="#2A2520"/>
<circle cx="372.0" cy="684.0" r="10.08" fill="#2A2520"/>
<circle cx="396.0" cy="684.0" r="10.08" fill="#2A2520"/>
<circle cx="420.0" cy="684.0" r="10.08" fill="#2A2520"/>
<circle cx="516.0" cy="684.0" r="10.08" fill="#2A2520"/>
<circle cx="540.0" cy="684.0" r="10.08" fill="#2A2520"/>
<circle cx="588.0" cy="684.0" r="10.08" fill="#2A2520"/>
<circle cx="612.0" cy="684.0" r="10.08" fill="#2A2520"/>
<circle cx="636.0" cy="684.0" r="10.08" fill="#2A2520"/>
<circle cx="660.0" cy="684.0" r="10.08" fill="#2A2520"/>
<circle cx="684.0" cy="684.0" r="10.08" fill="#2A2520"/>
<circle cx="708.0" cy="684.0" r="10.08" fill="#2A2520"/>
<circle cx="756.0" cy="684.0" r="10.08" fill="#2A2520"/>
<circle cx="780.0" cy="684.0" r="10.08" fill="#2A2520"/>
<rect x="0" y="696" width="24" height="24" fill="#2A2520"/>
<rect x="48" y="696" width="24" height="24" fill="#2A2520"/>
<rect x="72" y="696" width="24" height="24" fill="#2A2520"/>
<rect x="96" y="696" width="24" height="24" fill="#2A2520"/>
<rect x="144" y="696" width="24" height="24" fill="#2A2520"/>
<circle cx="204.0" cy="708.0" r="10.08" fill="#2A2520"/>
<circle cx="228.0" cy="708.0" r="10.08" fill="#2A2520"/>
<circle cx="276.0" cy="708.0" r="10.08" fill="#2A2520"/>
<circle cx="300.0" cy="708.0" r="10.08" fill="#2A2520"/>
<circle cx="348.0" cy="708.0" r="10.08" fill="#2A2520"/>
<circle cx="444.0" cy="708.0" r="10.08" fill="#2A2520"/>
<circle cx="468.0" cy="708.0" r="10.08" fill="#2A2520"/>
<circle cx="492.0" cy="708.0" r="10.08" fill="#2A2520"/>
<circle cx="516.0" cy="708.0" r="10.08" fill="#2A2520"/>
<circle cx="612.0" cy="708.0" r="10.08" fill="#2A2520"/>
<circle cx="684.0" cy="708.0" r="10.08" fill="#2A2520"/>
<circle cx="708.0" cy="708.0" r="10.08" fill="#2A2520"/>
<circle cx="780.0" cy="708.0" r="10.08" fill="#2A2520"/>
<rect x="0" y="720" width="24" height="24" fill="#2A2520"/>
<rect x="48" y="720" width="24" height="24" fill="#2A2520"/>
<rect x="72" y="720" width="24" height="24" fill="#2A2520"/>
<rect x="96" y="720" width="24" height="24" fill="#2A2520"/>
<rect x="144" y="720" width="24" height="24" fill="#2A2520"/>
<circle cx="204.0" cy="732.0" r="10.08" fill="#2A2520"/>
<circle cx="228.0" cy="732.0" r="10.08" fill="#2A2520"/>
<circle cx="252.0" cy="732.0" r="10.08" fill="#2A2520"/>
<circle cx="348.0" cy="732.0" r="10.08" fill="#2A2520"/>
<circle cx="444.0" cy="732.0" r="10.08" fill="#2A2520"/>
<circle cx="468.0" cy="732.0" r="10.08" fill="#2A2520"/>
<circle cx="516.0" cy="732.0" r="10.08" fill="#2A2520"/>
<circle cx="540.0" cy="732.0" r="10.08" fill="#2A2520"/>
<circle cx="564.0" cy="732.0" r="10.08" fill="#2A2520"/>
<circle cx="612.0" cy="732.0" r="10.08" fill="#2A2520"/>
<circle cx="636.0" cy="732.0" r="10.08" fill="#2A2520"/>
<circle cx="732.0" cy="732.0" r="10.08" fill="#2A2520"/>
<rect x="0" y="744" width="24" height="24" fill="#2A2520"/>
<rect x="144" y="744" width="24" height="24" fill="#2A2520"/>
<circle cx="228.0" cy="756.0" r="10.08" fill="#2A2520"/>
<circle cx="252.0" cy="756.0" r="10.08" fill="#2A2520"/>
<circle cx="276.0" cy="756.0" r="10.08" fill="#2A2520"/>
<circle cx="300.0" cy="756.0" r="10.08" fill="#2A2520"/>
<circle cx="324.0" cy="756.0" r="10.08" fill="#2A2520"/>
<circle cx="348.0" cy="756.0" r="10.08" fill="#2A2520"/>
<circle cx="372.0" cy="756.0" r="10.08" fill="#2A2520"/>
<circle cx="420.0" cy="756.0" r="10.08" fill="#2A2520"/>
<circle cx="444.0" cy="756.0" r="10.08" fill="#2A2520"/>
<circle cx="468.0" cy="756.0" r="10.08" fill="#2A2520"/>
<circle cx="492.0" cy="756.0" r="10.08" fill="#2A2520"/>
<circle cx="612.0" cy="756.0" r="10.08" fill="#2A2520"/>
<circle cx="636.0" cy="756.0" r="10.08" fill="#2A2520"/>
<circle cx="660.0" cy="756.0" r="10.08" fill="#2A2520"/>
<circle cx="732.0" cy="756.0" r="10.08" fill="#2A2520"/>
<rect x="0" y="768" width="24" height="24" fill="#2A2520"/>
<rect x="24" y="768" width="24" height="24" fill="#2A2520"/>
<rect x="48" y="768" width="24" height="24" fill="#2A2520"/>
<rect x="72" y="768" width="24" height="24" fill="#2A2520"/>
<rect x="96" y="768" width="24" height="24" fill="#2A2520"/>
<rect x="120" y="768" width="24" height="24" fill="#2A2520"/>
<rect x="144" y="768" width="24" height="24" fill="#2A2520"/>
<circle cx="228.0" cy="780.0" r="10.08" fill="#2A2520"/>
<circle cx="276.0" cy="780.0" r="10.08" fill="#2A2520"/>
<circle cx="348.0" cy="780.0" r="10.08" fill="#2A2520"/>
<circle cx="420.0" cy="780.0" r="10.08" fill="#2A2520"/>
<circle cx="492.0" cy="780.0" r="10.08" fill="#2A2520"/>
<circle cx="564.0" cy="780.0" r="10.08" fill="#2A2520"/>
<circle cx="588.0" cy="780.0" r="10.08" fill="#2A2520"/>
<circle cx="636.0" cy="780.0" r="10.08" fill="#2A2520"/>
<circle cx="756.0" cy="780.0" r="10.08" fill="#2A2520"/>
  </g>
  <!-- Логотип «Сферы» по центру -->
  <circle cx="396.0" cy="396.0" r="126.72" fill="#FAF7F0"/><circle cx="396.0" cy="396.0" r="102.96000000000001" fill="none" stroke="#8C7649" stroke-width="3"/><circle cx="396.0" cy="396.0" r="72.072" fill="none" stroke="#8C7649" stroke-width="2" opacity="0.55"/><circle cx="433.0656" cy="329.076" r="6" fill="#8C7649"/>
</svg>