<svg xmlns="http://www.w3.org/2000/svg" viewBox="-152.0 -152.0 1096.0 1096.0" width="640" height="640">
  <defs>
    <radialGradient id="bgGrad" cx="50%" cy="50%" r="55%">
      <stop offset="0%" stop-color="#FAF7F0"/>
      <stop offset="100%" stop-color="#F4EFE3"/>
    </radialGradient>
  </defs>
  <!-- Cream-paper фон в фигуре -->
  <path d="M 396.0,-300.0 L 915.6,48.0 L 915.6,744.0 L 396.0,1092.0 L -123.6,744.0 L -123.6,48.0 Z" fill="url(#bgGrad)"/>
  <!-- Тонкая gold-окантовка по форме -->
  <path d="M 396.0,-300.0 L 915.6,48.0 L 915.6,744.0 L 396.0,1092.0 L -123.6,744.0 L -123.6,48.0 Z" fill="none" stroke="#8C7649" stroke-width="2.5" opacity="0.75"/>
  <!-- ВЕСЬ QR в стандартном виде — квадраты, полный размер -->
<rect x="0" y="0" width="24" height="24" fill="#2A2520"/>
<rect x="24" y="0" width="24" height="24" fill="#2A2520"/>
<rect x="48" y="0" width="24" height="24" fill="#2A2520"/>
<rect x="72" y="0" width="24" height="24" fill="#2A2520"/>
<rect x="96" y="0" width="24" height="24" fill="#2A2520"/>
<rect x="120" y="0" width="24" height="24" fill="#2A2520"/>
<rect x="144" y="0" width="24" height="24" fill="#2A2520"/>
<rect x="216" y="0" width="24" height="24" fill="#2A2520"/>
<rect x="264" y="0" width="24" height="24" fill="#2A2520"/>
<rect x="336" y="0" width="24" height="24" fill="#2A2520"/>
<rect x="360" y="0" width="24" height="24" fill="#2A2520"/>
<rect x="432" y="0" width="24" height="24" fill="#2A2520"/>
<rect x="480" y="0" width="24" height="24" fill="#2A2520"/>
<rect x="552" y="0" width="24" height="24" fill="#2A2520"/>
<rect x="624" y="0" width="24" height="24" fill="#2A2520"/>
<rect x="648" y="0" width="24" height="24" fill="#2A2520"/>
<rect x="672" y="0" width="24" height="24" fill="#2A2520"/>
<rect x="696" y="0" width="24" height="24" fill="#2A2520"/>
<rect x="720" y="0" width="24" height="24" fill="#2A2520"/>
<rect x="744" y="0" width="24" height="24" fill="#2A2520"/>
<rect x="768" y="0" width="24" height="24" fill="#2A2520"/>
<rect x="0" y="24" width="24" height="24" fill="#2A2520"/>
<rect x="144" y="24" width="24" height="24" fill="#2A2520"/>
<rect x="264" y="24" width="24" height="24" fill="#2A2520"/>
<rect x="360" y="24" width="24" height="24" fill="#2A2520"/>
<rect x="432" y="24" width="24" height="24" fill="#2A2520"/>
<rect x="456" y="24" width="24" height="24" fill="#2A2520"/>
<rect x="576" y="24" width="24" height="24" fill="#2A2520"/>
<rect x="624" y="24" width="24" height="24" fill="#2A2520"/>
<rect x="768" y="24" width="24" height="24" fill="#2A2520"/>
<rect x="0" y="48" width="24" height="24" fill="#2A2520"/>
<rect x="48" y="48" width="24" height="24" fill="#2A2520"/>
<rect x="72" y="48" width="24" height="24" fill="#2A2520"/>
<rect x="96" y="48" width="24" height="24" fill="#2A2520"/>
<rect x="144" y="48" width="24" height="24" fill="#2A2520"/>
<rect x="192" y="48" width="24" height="24" fill="#2A2520"/>
<rect x="240" y="48" width="24" height="24" fill="#2A2520"/>
<rect x="264" y="48" width="24" height="24" fill="#2A2520"/>
<rect x="288" y="48" width="24" height="24" fill="#2A2520"/>
<rect x="360" y="48" width="24" height="24" fill="#2A2520"/>
<rect x="408" y="48" width="24" height="24" fill="#2A2520"/>
<rect x="432" y="48" width="24" height="24" fill="#2A2520"/>
<rect x="480" y="48" width="24" height="24" fill="#2A2520"/>
<rect x="504" y="48" width="24" height="24" fill="#2A2520"/>
<rect x="576" y="48" width="24" height="24" fill="#2A2520"/>
<rect x="624" y="48" width="24" height="24" fill="#2A2520"/>
<rect x="672" y="48" width="24" height="24" fill="#2A2520"/>
<rect x="696" y="48" width="24" height="24" fill="#2A2520"/>
<rect x="720" y="48" width="24" height="24" fill="#2A2520"/>
<rect x="768" y="48" width="24" height="24" fill="#2A2520"/>
<rect x="0" y="72" width="24" height="24" fill="#2A2520"/>
<rect x="48" y="72" width="24" height="24" fill="#2A2520"/>
<rect x="72" y="72" width="24" height="24" fill="#2A2520"/>
<rect x="96" y="72" width="24" height="24" fill="#2A2520"/>
<rect x="144" y="72" width="24" height="24" fill="#2A2520"/>
<rect x="240" y="72" width="24" height="24" fill="#2A2520"/>
<rect x="408" y="72" width="24" height="24" fill="#2A2520"/>
<rect x="504" y="72" width="24" height="24" fill="#2A2520"/>
<rect x="528" y="72" width="24" height="24" fill="#2A2520"/>
<rect x="624" y="72" width="24" height="24" fill="#2A2520"/>
<rect x="672" y="72" width="24" height="24" fill="#2A2520"/>
<rect x="696" y="72" width="24" height="24" fill="#2A2520"/>
<rect x="720" y="72" width="24" height="24" fill="#2A2520"/>
<rect x="768" y="72" width="24" height="24" fill="#2A2520"/>
<rect x="0" y="96" width="24" height="24" fill="#2A2520"/>
<rect x="48" y="96" width="24" height="24" fill="#2A2520"/>
<rect x="72" y="96" width="24" height="24" fill="#2A2520"/>
<rect x="96" y="96" width="24" height="24" fill="#2A2520"/>
<rect x="144" y="96" width="24" height="24" fill="#2A2520"/>
<rect x="192" y="96" width="24" height="24" fill="#2A2520"/>
<rect x="240" y="96" width="24" height="24" fill="#2A2520"/>
<rect x="312" y="96" width="24" height="24" fill="#2A2520"/>
<rect x="336" y="96" width="24" height="24" fill="#2A2520"/>
<rect x="408" y="96" width="24" height="24" fill="#2A2520"/>
<rect x="456" y="96" width="24" height="24" fill="#2A2520"/>
<rect x="528" y="96" width="24" height="24" fill="#2A2520"/>
<rect x="624" y="96" width="24" height="24" fill="#2A2520"/>
<rect x="672" y="96" width="24" height="24" fill="#2A2520"/>
<rect x="696" y="96" width="24" height="24" fill="#2A2520"/>
<rect x="720" y="96" width="24" height="24" fill="#2A2520"/>
<rect x="768" y="96" width="24" height="24" fill="#2A2520"/>
<rect x="0" y="120" width="24" height="24" fill="#2A2520"/>
<rect x="144" y="120" width="24" height="24" fill="#2A2520"/>
<rect x="192" y="120" width="24" height="24" fill="#2A2520"/>
<rect x="240" y="120" width="24" height="24" fill="#2A2520"/>
<rect x="264" y="120" width="24" height="24" fill="#2A2520"/>
<rect x="408" y="120" width="24" height="24" fill="#2A2520"/>
<rect x="480" y="120" width="24" height="24" fill="#2A2520"/>
<rect x="552" y="120" width="24" height="24" fill="#2A2520"/>
<rect x="576" y="120" width="24" height="24" fill="#2A2520"/>
<rect x="624" y="120" width="24" height="24" fill="#2A2520"/>
<rect x="768" y="120" width="24" height="24" fill="#2A2520"/>
<rect x="0" y="144" width="24" height="24" fill="#2A2520"/>
<rect x="24" y="144" width="24" height="24" fill="#2A2520"/>
<rect x="48" y="144" width="24" height="24" fill="#2A2520"/>
<rect x="72" y="144" width="24" height="24" fill="#2A2520"/>
<rect x="96" y="144" width="24" height="24" fill="#2A2520"/>
<rect x="120" y="144" width="24" height="24" fill="#2A2520"/>
<rect x="144" y="144" width="24" height="24" fill="#2A2520"/>
<rect x="192" y="144" width="24" height="24" fill="#2A2520"/>
<rect x="240" y="144" width="24" height="24" fill="#2A2520"/>
<rect x="288" y="144" width="24" height="24" fill="#2A2520"/>
<rect x="336" y="144" width="24" height="24" fill="#2A2520"/>
<rect x="384" y="144" width="24" height="24" fill="#2A2520"/>
<rect x="432" y="144" width="24" height="24" fill="#2A2520"/>
<rect x="480" y="144" width="24" height="24" fill="#2A2520"/>
<rect x="528" y="144" width="24" height="24" fill="#2A2520"/>
<rect x="576" y="144" width="24" height="24" fill="#2A2520"/>
<rect x="624" y="144" width="24" height="24" fill="#2A2520"/>
<rect x="648" y="144" width="24" height="24" fill="#2A2520"/>
<rect x="672" y="144" width="24" height="24" fill="#2A2520"/>
<rect x="696" y="144" width="24" height="24" fill="#2A2520"/>
<rect x="720" y="144" width="24" height="24" fill="#2A2520"/>
<rect x="744" y="144" width="24" height="24" fill="#2A2520"/>
<rect x="768" y="144" width="24" height="24" fill="#2A2520"/>
<rect x="216" y="168" width="24" height="24" fill="#2A2520"/>
<rect x="240" y="168" width="24" height="24" fill="#2A2520"/>
<rect x="288" y="168" width="24" height="24" fill="#2A2520"/>
<rect x="336" y="168" width="24" height="24" fill="#2A2520"/>
<rect x="384" y="168" width="24" height="24" fill="#2A2520"/>
<rect x="408" y="168" width="24" height="24" fill="#2A2520"/>
<rect x="456" y="168" width="24" height="24" fill="#2A2520"/>
<rect x="480" y="168" width="24" height="24" fill="#2A2520"/>
<rect x="504" y="168" width="24" height="24" fill="#2A2520"/>
<rect x="576" y="168" width="24" height="24" fill="#2A2520"/>
<rect x="24" y="192" width="24" height="24" fill="#2A2520"/>
<rect x="96" y="192" width="24" height="24" fill="#2A2520"/>
<rect x="144" y="192" width="24" height="24" fill="#2A2520"/>
<rect x="192" y="192" width="24" height="24" fill="#2A2520"/>
<rect x="216" y="192" width="24" height="24" fill="#2A2520"/>
<rect x="336" y="192" width="24" height="24" fill="#2A2520"/>
<rect x="360" y="192" width="24" height="24" fill="#2A2520"/>
<rect x="384" y="192" width="24" height="24" fill="#2A2520"/>
<rect x="408" y="192" width="24" height="24" fill="#2A2520"/>
<rect x="480" y="192" width="24" height="24" fill="#2A2520"/>
<rect x="504" y="192" width="24" height="24" fill="#2A2520"/>
<rect x="552" y="192" width="24" height="24" fill="#2A2520"/>
<rect x="576" y="192" width="24" height="24" fill="#2A2520"/>
<rect x="600" y="192" width="24" height="24" fill="#2A2520"/>
<rect x="648" y="192" width="24" height="24" fill="#2A2520"/>
<rect x="672" y="192" width="24" height="24" fill="#2A2520"/>
<rect x="720" y="192" width="24" height="24" fill="#2A2520"/>
<rect x="0" y="216" width="24" height="24" fill="#2A2520"/>
<rect x="48" y="216" width="24" height="24" fill="#2A2520"/>
<rect x="72" y="216" width="24" height="24" fill="#2A2520"/>
<rect x="288" y="216" width="24" height="24" fill="#2A2520"/>
<rect x="408" y="216" width="24" height="24" fill="#2A2520"/>
<rect x="504" y="216" width="24" height="24" fill="#2A2520"/>
<rect x="552" y="216" width="24" height="24" fill="#2A2520"/>
<rect x="600" y="216" width="24" height="24" fill="#2A2520"/>
<rect x="696" y="216" width="24" height="24" fill="#2A2520"/>
<rect x="720" y="216" width="24" height="24" fill="#2A2520"/>
<rect x="744" y="216" width="24" height="24" fill="#2A2520"/>
<rect x="0" y="240" width="24" height="24" fill="#2A2520"/>
<rect x="48" y="240" width="24" height="24" fill="#2A2520"/>
<rect x="96" y="240" width="24" height="24" fill="#2A2520"/>
<rect x="144" y="240" width="24" height="24" fill="#2A2520"/>
<rect x="168" y="240" width="24" height="24" fill="#2A2520"/>
<rect x="192" y="240" width="24" height="24" fill="#2A2520"/>
<rect x="216" y="240" width="24" height="24" fill="#2A2520"/>
<rect x="312" y="240" width="24" height="24" fill="#2A2520"/>
<rect x="360" y="240" width="24" height="24" fill="#2A2520"/>
<rect x="384" y="240" width="24" height="24" fill="#2A2520"/>
<rect x="432" y="240" width="24" height="24" fill="#2A2520"/>
<rect x="552" y="240" width="24" height="24" fill="#2A2520"/>
<rect x="576" y="240" width="24" height="24" fill="#2A2520"/>
<rect x="696" y="240" width="24" height="24" fill="#2A2520"/>
<rect x="744" y="240" width="24" height="24" fill="#2A2520"/>
<rect x="96" y="264" width="24" height="24" fill="#2A2520"/>
<rect x="168" y="264" width="24" height="24" fill="#2A2520"/>
<rect x="240" y="264" width="24" height="24" fill="#2A2520"/>
<rect x="336" y="264" width="24" height="24" fill="#2A2520"/>
<rect x="384" y="264" width="24" height="24" fill="#2A2520"/>
<rect x="456" y="264" width="24" height="24" fill="#2A2520"/>
<rect x="528" y="264" width="24" height="24" fill="#2A2520"/>
<rect x="552" y="264" width="24" height="24" fill="#2A2520"/>
<rect x="768" y="264" width="24" height="24" fill="#2A2520"/>
<rect x="0" y="288" width="24" height="24" fill="#2A2520"/>
<rect x="24" y="288" width="24" height="24" fill="#2A2520"/>
<rect x="48" y="288" width="24" height="24" fill="#2A2520"/>
<rect x="96" y="288" width="24" height="24" fill="#2A2520"/>
<rect x="144" y="288" width="24" height="24" fill="#2A2520"/>
<rect x="288" y="288" width="24" height="24" fill="#2A2520"/>
<rect x="336" y="288" width="24" height="24" fill="#2A2520"/>
<rect x="360" y="288" width="24" height="24" fill="#2A2520"/>
<rect x="384" y="288" width="24" height="24" fill="#2A2520"/>
<rect x="456" y="288" width="24" height="24" fill="#2A2520"/>
<rect x="528" y="288" width="24" height="24" fill="#2A2520"/>
<rect x="552" y="288" width="24" height="24" fill="#2A2520"/>
<rect x="624" y="288" width="24" height="24" fill="#2A2520"/>
<rect x="648" y="288" width="24" height="24" fill="#2A2520"/>
<rect x="672" y="288" width="24" height="24" fill="#2A2520"/>
<rect x="696" y="288" width="24" height="24" fill="#2A2520"/>
<rect x="744" y="288" width="24" height="24" fill="#2A2520"/>
<rect x="768" y="288" width="24" height="24" fill="#2A2520"/>
<rect x="48" y="312" width="24" height="24" fill="#2A2520"/>
<rect x="72" y="312" width="24" height="24" fill="#2A2520"/>
<rect x="168" y="312" width="24" height="24" fill="#2A2520"/>
<rect x="288" y="312" width="24" height="24" fill="#2A2520"/>
<rect x="312" y="312" width="24" height="24" fill="#2A2520"/>
<rect x="336" y="312" width="24" height="24" fill="#2A2520"/>
<rect x="360" y="312" width="24" height="24" fill="#2A2520"/>
<rect x="432" y="312" width="24" height="24" fill="#2A2520"/>
<rect x="456" y="312" width="24" height="24" fill="#2A2520"/>
<rect x="480" y="312" width="24" height="24" fill="#2A2520"/>
<rect x="504" y="312" width="24" height="24" fill="#2A2520"/>
<rect x="576" y="312" width="24" height="24" fill="#2A2520"/>
<rect x="648" y="312" width="24" height="24" fill="#2A2520"/>
<rect x="720" y="312" width="24" height="24" fill="#2A2520"/>
<rect x="48" y="336" width="24" height="24" fill="#2A2520"/>
<rect x="144" y="336" width="24" height="24" fill="#2A2520"/>
<rect x="192" y="336" width="24" height="24" fill="#2A2520"/>
<rect x="240" y="336" width="24" height="24" fill="#2A2520"/>
<rect x="264" y="336" width="24" height="24" fill="#2A2520"/>
<rect x="480" y="336" width="24" height="24" fill="#2A2520"/>
<rect x="504" y="336" width="24" height="24" fill="#2A2520"/>
<rect x="552" y="336" width="24" height="24" fill="#2A2520"/>
<rect x="576" y="336" width="24" height="24" fill="#2A2520"/>
<rect x="600" y="336" width="24" height="24" fill="#2A2520"/>
<rect x="624" y="336" width="24" height="24" fill="#2A2520"/>
<rect x="672" y="336" width="24" height="24" fill="#2A2520"/>
<rect x="720" y="336" width="24" height="24" fill="#2A2520"/>
<rect x="744" y="336" width="24" height="24" fill="#2A2520"/>
<rect x="0" y="360" width="24" height="24" fill="#2A2520"/>
<rect x="72" y="360" width="24" height="24" fill="#2A2520"/>
<rect x="120" y="360" width="24" height="24" fill="#2A2520"/>
<rect x="168" y="360" width="24" height="24" fill="#2A2520"/>
<rect x="216" y="360" width="24" height="24" fill="#2A2520"/>
<rect x="264" y="360" width="24" height="24" fill="#2A2520"/>
<rect x="504" y="360" width="24" height="24" fill="#2A2520"/>
<rect x="552" y="360" width="24" height="24" fill="#2A2520"/>
<rect x="600" y="360" width="24" height="24" fill="#2A2520"/>
<rect x="624" y="360" width="24" height="24" fill="#2A2520"/>
<rect x="648" y="360" width="24" height="24" fill="#2A2520"/>
<rect x="672" y="360" width="24" height="24" fill="#2A2520"/>
<rect x="24" y="384" width="24" height="24" fill="#2A2520"/>
<rect x="96" y="384" width="24" height="24" fill="#2A2520"/>
<rect x="144" y="384" width="24" height="24" fill="#2A2520"/>
<rect x="192" y="384" width="24" height="24" fill="#2A2520"/>
<rect x="240" y="384" width="24" height="24" fill="#2A2520"/>
<rect x="288" y="384" width="24" height="24" fill="#2A2520"/>
<rect x="312" y="384" width="24" height="24" fill="#2A2520"/>
<rect x="504" y="384" width="24" height="24" fill="#2A2520"/>
<rect x="528" y="384" width="24" height="24" fill="#2A2520"/>
<rect x="576" y="384" width="24" height="24" fill="#2A2520"/>
<rect x="624" y="384" width="24" height="24" fill="#2A2520"/>
<rect x="672" y="384" width="24" height="24" fill="#2A2520"/>
<rect x="744" y="384" width="24" height="24" fill="#2A2520"/>
<rect x="48" y="408" width="24" height="24" fill="#2A2520"/>
<rect x="96" y="408" width="24" height="24" fill="#2A2520"/>
<rect x="240" y="408" width="24" height="24" fill="#2A2520"/>
<rect x="264" y="408" width="24" height="24" fill="#2A2520"/>
<rect x="312" y="408" width="24" height="24" fill="#2A2520"/>
<rect x="528" y="408" width="24" height="24" fill="#2A2520"/>
<rect x="552" y="408" width="24" height="24" fill="#2A2520"/>
<rect x="600" y="408" width="24" height="24" fill="#2A2520"/>
<rect x="696" y="408" width="24" height="24" fill="#2A2520"/>
<rect x="720" y="408" width="24" height="24" fill="#2A2520"/>
<rect x="24" y="432" width="24" height="24" fill="#2A2520"/>
<rect x="72" y="432" width="24" height="24" fill="#2A2520"/>
<rect x="96" y="432" width="24" height="24" fill="#2A2520"/>
<rect x="120" y="432" width="24" height="24" fill="#2A2520"/>
<rect x="144" y="432" width="24" height="24" fill="#2A2520"/>
<rect x="240" y="432" width="24" height="24" fill="#2A2520"/>
<rect x="264" y="432" width="24" height="24" fill="#2A2520"/>
<rect x="288" y="432" width="24" height="24" fill="#2A2520"/>
<rect x="312" y="432" width="24" height="24" fill="#2A2520"/>
<rect x="480" y="432" width="24" height="24" fill="#2A2520"/>
<rect x="504" y="432" width="24" height="24" fill="#2A2520"/>
<rect x="528" y="432" width="24" height="24" fill="#2A2520"/>
<rect x="552" y="432" width="24" height="24" fill="#2A2520"/>
<rect x="648" y="432" width="24" height="24" fill="#2A2520"/>
<rect x="696" y="432" width="24" height="24" fill="#2A2520"/>
<rect x="744" y="432" width="24" height="24" fill="#2A2520"/>
<rect x="24" y="456" width="24" height="24" fill="#2A2520"/>
<rect x="96" y="456" width="24" height="24" fill="#2A2520"/>
<rect x="120" y="456" width="24" height="24" fill="#2A2520"/>
<rect x="168" y="456" width="24" height="24" fill="#2A2520"/>
<rect x="192" y="456" width="24" height="24" fill="#2A2520"/>
<rect x="216" y="456" width="24" height="24" fill="#2A2520"/>
<rect x="240" y="456" width="24" height="24" fill="#2A2520"/>
<rect x="264" y="456" width="24" height="24" fill="#2A2520"/>
<rect x="480" y="456" width="24" height="24" fill="#2A2520"/>
<rect x="504" y="456" width="24" height="24" fill="#2A2520"/>
<rect x="648" y="456" width="24" height="24" fill="#2A2520"/>
<rect x="744" y="456" width="24" height="24" fill="#2A2520"/>
<rect x="0" y="480" width="24" height="24" fill="#2A2520"/>
<rect x="24" y="480" width="24" height="24" fill="#2A2520"/>
<rect x="48" y="480" width="24" height="24" fill="#2A2520"/>
<rect x="120" y="480" width="24" height="24" fill="#2A2520"/>
<rect x="144" y="480" width="24" height="24" fill="#2A2520"/>
<rect x="192" y="480" width="24" height="24" fill="#2A2520"/>
<rect x="240" y="480" width="24" height="24" fill="#2A2520"/>
<rect x="288" y="480" width="24" height="24" fill="#2A2520"/>
<rect x="360" y="480" width="24" height="24" fill="#2A2520"/>
<rect x="384" y="480" width="24" height="24" fill="#2A2520"/>
<rect x="432" y="480" width="24" height="24" fill="#2A2520"/>
<rect x="456" y="480" width="24" height="24" fill="#2A2520"/>
<rect x="480" y="480" width="24" height="24" fill="#2A2520"/>
<rect x="576" y="480" width="24" height="24" fill="#2A2520"/>
<rect x="600" y="480" width="24" height="24" fill="#2A2520"/>
<rect x="624" y="480" width="24" height="24" fill="#2A2520"/>
<rect x="672" y="480" width="24" height="24" fill="#2A2520"/>
<rect x="696" y="480" width="24" height="24" fill="#2A2520"/>
<rect x="768" y="480" width="24" height="24" fill="#2A2520"/>
<rect x="0" y="504" width="24" height="24" fill="#2A2520"/>
<rect x="24" y="504" width="24" height="24" fill="#2A2520"/>
<rect x="96" y="504" width="24" height="24" fill="#2A2520"/>
<rect x="168" y="504" width="24" height="24" fill="#2A2520"/>
<rect x="192" y="504" width="24" height="24" fill="#2A2520"/>
<rect x="312" y="504" width="24" height="24" fill="#2A2520"/>
<rect x="336" y="504" width="24" height="24" fill="#2A2520"/>
<rect x="432" y="504" width="24" height="24" fill="#2A2520"/>
<rect x="456" y="504" width="24" height="24" fill="#2A2520"/>
<rect x="528" y="504" width="24" height="24" fill="#2A2520"/>
<rect x="600" y="504" width="24" height="24" fill="#2A2520"/>
<rect x="648" y="504" width="24" height="24" fill="#2A2520"/>
<rect x="696" y="504" width="24" height="24" fill="#2A2520"/>
<rect x="720" y="504" width="24" height="24" fill="#2A2520"/>
<rect x="744" y="504" width="24" height="24" fill="#2A2520"/>
<rect x="48" y="528" width="24" height="24" fill="#2A2520"/>
<rect x="72" y="528" width="24" height="24" fill="#2A2520"/>
<rect x="144" y="528" width="24" height="24" fill="#2A2520"/>
<rect x="168" y="528" width="24" height="24" fill="#2A2520"/>
<rect x="288" y="528" width="24" height="24" fill="#2A2520"/>
<rect x="336" y="528" width="24" height="24" fill="#2A2520"/>
<rect x="360" y="528" width="24" height="24" fill="#2A2520"/>
<rect x="432" y="528" width="24" height="24" fill="#2A2520"/>
<rect x="456" y="528" width="24" height="24" fill="#2A2520"/>
<rect x="528" y="528" width="24" height="24" fill="#2A2520"/>
<rect x="600" y="528" width="24" height="24" fill="#2A2520"/>
<rect x="624" y="528" width="24" height="24" fill="#2A2520"/>
<rect x="648" y="528" width="24" height="24" fill="#2A2520"/>
<rect x="744" y="528" width="24" height="24" fill="#2A2520"/>
<rect x="48" y="552" width="24" height="24" fill="#2A2520"/>
<rect x="96" y="552" width="24" height="24" fill="#2A2520"/>
<rect x="168" y="552" width="24" height="24" fill="#2A2520"/>
<rect x="240" y="552" width="24" height="24" fill="#2A2520"/>
<rect x="288" y="552" width="24" height="24" fill="#2A2520"/>
<rect x="312" y="552" width="24" height="24" fill="#2A2520"/>
<rect x="336" y="552" width="24" height="24" fill="#2A2520"/>
<rect x="432" y="552" width="24" height="24" fill="#2A2520"/>
<rect x="456" y="552" width="24" height="24" fill="#2A2520"/>
<rect x="480" y="552" width="24" height="24" fill="#2A2520"/>
<rect x="504" y="552" width="24" height="24" fill="#2A2520"/>
<rect x="576" y="552" width="24" height="24" fill="#2A2520"/>
<rect x="600" y="552" width="24" height="24" fill="#2A2520"/>
<rect x="744" y="552" width="24" height="24" fill="#2A2520"/>
<rect x="0" y="576" width="24" height="24" fill="#2A2520"/>
<rect x="24" y="576" width="24" height="24" fill="#2A2520"/>
<rect x="72" y="576" width="24" height="24" fill="#2A2520"/>
<rect x="144" y="576" width="24" height="24" fill="#2A2520"/>
<rect x="168" y="576" width="24" height="24" fill="#2A2520"/>
<rect x="192" y="576" width="24" height="24" fill="#2A2520"/>
<rect x="240" y="576" width="24" height="24" fill="#2A2520"/>
<rect x="288" y="576" width="24" height="24" fill="#2A2520"/>
<rect x="312" y="576" width="24" height="24" fill="#2A2520"/>
<rect x="360" y="576" width="24" height="24" fill="#2A2520"/>
<rect x="480" y="576" width="24" height="24" fill="#2A2520"/>
<rect x="504" y="576" width="24" height="24" fill="#2A2520"/>
<rect x="528" y="576" width="24" height="24" fill="#2A2520"/>
<rect x="552" y="576" width="24" height="24" fill="#2A2520"/>
<rect x="576" y="576" width="24" height="24" fill="#2A2520"/>
<rect x="600" y="576" width="24" height="24" fill="#2A2520"/>
<rect x="624" y="576" width="24" height="24" fill="#2A2520"/>
<rect x="648" y="576" width="24" height="24" fill="#2A2520"/>
<rect x="672" y="576" width="24" height="24" fill="#2A2520"/>
<rect x="744" y="576" width="24" height="24" fill="#2A2520"/>
<rect x="768" y="576" width="24" height="24" fill="#2A2520"/>
<rect x="192" y="600" width="24" height="24" fill="#2A2520"/>
<rect x="216" y="600" width="24" height="24" fill="#2A2520"/>
<rect x="288" y="600" width="24" height="24" fill="#2A2520"/>
<rect x="336" y="600" width="24" height="24" fill="#2A2520"/>
<rect x="360" y="600" width="24" height="24" fill="#2A2520"/>
<rect x="408" y="600" width="24" height="24" fill="#2A2520"/>
<rect x="432" y="600" width="24" height="24" fill="#2A2520"/>
<rect x="504" y="600" width="24" height="24" fill="#2A2520"/>
<rect x="528" y="600" width="24" height="24" fill="#2A2520"/>
<rect x="552" y="600" width="24" height="24" fill="#2A2520"/>
<rect x="576" y="600" width="24" height="24" fill="#2A2520"/>
<rect x="672" y="600" width="24" height="24" fill="#2A2520"/>
<rect x="720" y="600" width="24" height="24" fill="#2A2520"/>
<rect x="744" y="600" width="24" height="24" fill="#2A2520"/>
<rect x="0" y="624" width="24" height="24" fill="#2A2520"/>
<rect x="24" y="624" width="24" height="24" fill="#2A2520"/>
<rect x="48" y="624" width="24" height="24" fill="#2A2520"/>
<rect x="72" y="624" width="24" height="24" fill="#2A2520"/>
<rect x="96" y="624" width="24" height="24" fill="#2A2520"/>
<rect x="120" y="624" width="24" height="24" fill="#2A2520"/>
<rect x="144" y="624" width="24" height="24" fill="#2A2520"/>
<rect x="216" y="624" width="24" height="24" fill="#2A2520"/>
<rect x="240" y="624" width="24" height="24" fill="#2A2520"/>
<rect x="336" y="624" width="24" height="24" fill="#2A2520"/>
<rect x="360" y="624" width="24" height="24" fill="#2A2520"/>
<rect x="576" y="624" width="24" height="24" fill="#2A2520"/>
<rect x="624" y="624" width="24" height="24" fill="#2A2520"/>
<rect x="672" y="624" width="24" height="24" fill="#2A2520"/>
<rect x="696" y="624" width="24" height="24" fill="#2A2520"/>
<rect x="744" y="624" width="24" height="24" fill="#2A2520"/>
<rect x="0" y="648" width="24" height="24" fill="#2A2520"/>
<rect x="144" y="648" width="24" height="24" fill="#2A2520"/>
<rect x="216" y="648" width="24" height="24" fill="#2A2520"/>
<rect x="240" y="648" width="24" height="24" fill="#2A2520"/>
<rect x="288" y="648" width="24" height="24" fill="#2A2520"/>
<rect x="312" y="648" width="24" height="24" fill="#2A2520"/>
<rect x="384" y="648" width="24" height="24" fill="#2A2520"/>
<rect x="408" y="648" width="24" height="24" fill="#2A2520"/>
<rect x="432" y="648" width="24" height="24" fill="#2A2520"/>
<rect x="528" y="648" width="24" height="24" fill="#2A2520"/>
<rect x="576" y="648" width="24" height="24" fill="#2A2520"/>
<rect x="672" y="648" width="24" height="24" fill="#2A2520"/>
<rect x="768" y="648" width="24" height="24" fill="#2A2520"/>
<rect x="0" y="672" width="24" height="24" fill="#2A2520"/>
<rect x="48" y="672" width="24" height="24" fill="#2A2520"/>
<rect x="72" y="672" width="24" height="24" fill="#2A2520"/>
<rect x="96" y="672" width="24" height="24" fill="#2A2520"/>
<rect x="144" y="672" width="24" height="24" fill="#2A2520"/>
<rect x="192" y="672" width="24" height="24" fill="#2A2520"/>
<rect x="216" y="672" width="24" height="24" fill="#2A2520"/>
<rect x="240" y="672" width="24" height="24" fill="#2A2520"/>
<rect x="264" y="672" width="24" height="24" fill="#2A2520"/>
<rect x="360" y="672" width="24" height="24" fill="#2A2520"/>
<rect x="432" y="672" width="24" height="24" fill="#2A2520"/>
<rect x="528" y="672" width="24" height="24" fill="#2A2520"/>
<rect x="576" y="672" width="24" height="24" fill="#2A2520"/>
<rect x="600" y="672" width="24" height="24" fill="#2A2520"/>
<rect x="624" y="672" width="24" height="24" fill="#2A2520"/>
<rect x="648" y="672" width="24" height="24" fill="#2A2520"/>
<rect x="672" y="672" width="24" height="24" fill="#2A2520"/>
<rect x="696" y="672" width="24" height="24" fill="#2A2520"/>
<rect x="768" y="672" width="24" height="24" fill="#2A2520"/>
<rect x="0" y="696" width="24" height="24" fill="#2A2520"/>
<rect x="48" y="696" width="24" height="24" fill="#2A2520"/>
<rect x="72" y="696" width="24" height="24" fill="#2A2520"/>
<rect x="96" y="696" width="24" height="24" fill="#2A2520"/>
<rect x="144" y="696" width="24" height="24" fill="#2A2520"/>
<rect x="216" y="696" width="24" height="24" fill="#2A2520"/>
<rect x="264" y="696" width="24" height="24" fill="#2A2520"/>
<rect x="288" y="696" width="24" height="24" fill="#2A2520"/>
<rect x="336" y="696" width="24" height="24" fill="#2A2520"/>
<rect x="360" y="696" width="24" height="24" fill="#2A2520"/>
<rect x="432" y="696" width="24" height="24" fill="#2A2520"/>
<rect x="456" y="696" width="24" height="24" fill="#2A2520"/>
<rect x="480" y="696" width="24" height="24" fill="#2A2520"/>
<rect x="552" y="696" width="24" height="24" fill="#2A2520"/>
<rect x="576" y="696" width="24" height="24" fill="#2A2520"/>
<rect x="624" y="696" width="24" height="24" fill="#2A2520"/>
<rect x="648" y="696" width="24" height="24" fill="#2A2520"/>
<rect x="672" y="696" width="24" height="24" fill="#2A2520"/>
<rect x="696" y="696" width="24" height="24" fill="#2A2520"/>
<rect x="744" y="696" width="24" height="24" fill="#2A2520"/>
<rect x="0" y="720" width="24" height="24" fill="#2A2520"/>
<rect x="48" y="720" width="24" height="24" fill="#2A2520"/>
<rect x="72" y="720" width="24" height="24" fill="#2A2520"/>
<rect x="96" y="720" width="24" height="24" fill="#2A2520"/>
<rect x="144" y="720" width="24" height="24" fill="#2A2520"/>
<rect x="216" y="720" width="24" height="24" fill="#2A2520"/>
<rect x="288" y="720" width="24" height="24" fill="#2A2520"/>
<rect x="312" y="720" width="24" height="24" fill="#2A2520"/>
<rect x="360" y="720" width="24" height="24" fill="#2A2520"/>
<rect x="384" y="720" width="24" height="24" fill="#2A2520"/>
<rect x="480" y="720" width="24" height="24" fill="#2A2520"/>
<rect x="504" y="720" width="24" height="24" fill="#2A2520"/>
<rect x="528" y="720" width="24" height="24" fill="#2A2520"/>
<rect x="552" y="720" width="24" height="24" fill="#2A2520"/>
<rect x="624" y="720" width="24" height="24" fill="#2A2520"/>
<rect x="648" y="720" width="24" height="24" fill="#2A2520"/>
<rect x="672" y="720" width="24" height="24" fill="#2A2520"/>
<rect x="696" y="720" width="24" height="24" fill="#2A2520"/>
<rect x="0" y="744" width="24" height="24" fill="#2A2520"/>
<rect x="144" y="744" width="24" height="24" fill="#2A2520"/>
<rect x="192" y="744" width="24" height="24" fill="#2A2520"/>
<rect x="240" y="744" width="24" height="24" fill="#2A2520"/>
<rect x="264" y="744" width="24" height="24" fill="#2A2520"/>
<rect x="312" y="744" width="24" height="24" fill="#2A2520"/>
<rect x="336" y="744" width="24" height="24" fill="#2A2520"/>
<rect x="504" y="744" width="24" height="24" fill="#2A2520"/>
<rect x="528" y="744" width="24" height="24" fill="#2A2520"/>
<rect x="552" y="744" width="24" height="24" fill="#2A2520"/>
<rect x="600" y="744" width="24" height="24" fill="#2A2520"/>
<rect x="624" y="744" width="24" height="24" fill="#2A2520"/>
<rect x="696" y="744" width="24" height="24" fill="#2A2520"/>
<rect x="0" y="768" width="24" height="24" fill="#2A2520"/>
<rect x="24" y="768" width="24" height="24" fill="#2A2520"/>
<rect x="48" y="768" width="24" height="24" fill="#2A2520"/>
<rect x="72" y="768" width="24" height="24" fill="#2A2520"/>
<rect x="96" y="768" width="24" height="24" fill="#2A2520"/>
<rect x="120" y="768" width="24" height="24" fill="#2A2520"/>
<rect x="144" y="768" width="24" height="24" fill="#2A2520"/>
<rect x="288" y="768" width="24" height="24" fill="#2A2520"/>
<rect x="312" y="768" width="24" height="24" fill="#2A2520"/>
<rect x="336" y="768" width="24" height="24" fill="#2A2520"/>
<rect x="360" y="768" width="24" height="24" fill="#2A2520"/>
<rect x="432" y="768" width="24" height="24" fill="#2A2520"/>
<rect x="456" y="768" width="24" height="24" fill="#2A2520"/>
<rect x="480" y="768" width="24" height="24" fill="#2A2520"/>
<rect x="504" y="768" width="24" height="24" fill="#2A2520"/>
<rect x="528" y="768" width="24" height="24" fill="#2A2520"/>
<rect x="576" y="768" width="24" height="24" fill="#2A2520"/>
<rect x="768" y="768" width="24" height="24" fill="#2A2520"/>
  <!-- Логотип «Сферы» — маленький, в safe-zone -->
  <circle cx="396.0" cy="396.0" r="83.16" fill="#FAF7F0"/><circle cx="396.0" cy="396.0" r="67.32000000000001" fill="none" stroke="#8C7649" stroke-width="2.5"/><circle cx="396.0" cy="396.0" r="47.124" fill="none" stroke="#8C7649" stroke-width="1.5" opacity="0.55"/><circle cx="420.2352" cy="352.24199999999996" r="5" fill="#8C7649"/>
</svg>